<svg width="21" height="21" viewBox="0 0 21 21" fill="none" xmlns="http://www.w3.org/2000/svg">
<g clip-path="url(#clip0_1_206)">
<path d="M10.492 0.247009H10.491C4.83176 0.247009 0.244019 4.83475 0.244019 10.494V10.495C0.244019 16.1543 4.83176 20.742 10.491 20.742H10.492C16.1513 20.742 20.739 16.1543 20.739 10.495V10.494C20.739 4.83475 16.1513 0.247009 10.492 0.247009Z" fill="#371B1B"/>
<mask id="mask0_1_206" style="mask-type:alpha" maskUnits="userSpaceOnUse" x="0" y="0" width="21" height="21">
<path d="M16.299 0.247009H4.68402C2.23187 0.247009 0.244019 2.23486 0.244019 4.68701V16.302C0.244019 18.7542 2.23187 20.742 4.68402 20.742H16.299C18.7512 20.742 20.739 18.7542 20.739 16.302V4.68701C20.739 2.23486 18.7512 0.247009 16.299 0.247009Z" fill="white"/>
</mask>
<g mask="url(#mask0_1_206)">
<path d="M16.302 0.247009H4.68102C2.23053 0.247009 0.244019 2.23352 0.244019 4.68401V16.305C0.244019 18.7555 2.23053 20.742 4.68102 20.742H16.302C18.7525 20.742 20.739 18.7555 20.739 16.305V4.68401C20.739 2.23352 18.7525 0.247009 16.302 0.247009Z" fill="#4840BB"/>
<path fill-rule="evenodd" clip-rule="evenodd" d="M16.132 15.567V15.535C16.1183 15.5151 16.1014 15.4975 16.082 15.483C13.621 13.53 13.931 9.44401 14.63 5.65201C14.658 5.49901 14.677 5.39701 14.552 5.38201C13.757 5.29201 11.107 5.71301 10.346 5.91501C10.148 5.96801 10.131 6.02401 10.127 6.14501C9.91899 13.737 14.715 15.326 16.017 15.573C16.047 15.579 16.113 15.586 16.132 15.567ZM9.20799 8.27701C8.23199 8.46201 7.32799 8.82301 6.54599 9.14701C6.47699 9.16701 6.36699 9.28101 6.39599 9.42201C6.70399 10.956 8.20799 15.28 13.959 15.617C14.092 15.623 14.225 15.599 14.121 15.537C13.345 14.957 10.587 14.36 9.45999 8.49501C9.44799 8.43501 9.44999 8.20701 9.20799 8.27701ZM6.44799 11.877C6.10599 12.078 5.22199 12.642 4.90499 12.933C4.84299 12.99 4.85499 13.031 4.88199 13.129C5.13799 14.037 6.64799 15.629 10.398 15.505C10.575 15.499 10.576 15.446 10.483 15.38C10.423 15.336 9.23799 14.966 8.15399 13.996C7.61199 13.51 7.06099 12.773 6.69099 12.072C6.59899 11.88 6.55199 11.816 6.44799 11.877Z" fill="white"/>
</g>
<mask id="mask1_1_206" style="mask-type:alpha" maskUnits="userSpaceOnUse" x="4" y="5" width="13" height="11">
<path fill-rule="evenodd" clip-rule="evenodd" d="M16.132 15.567V15.535C16.1183 15.5151 16.1014 15.4975 16.082 15.483C13.621 13.53 13.931 9.44401 14.63 5.65201C14.658 5.49901 14.677 5.39701 14.552 5.38201C13.757 5.29201 11.107 5.71301 10.346 5.91501C10.148 5.96801 10.131 6.02401 10.127 6.14501C9.91899 13.737 14.715 15.326 16.017 15.573C16.047 15.579 16.113 15.586 16.132 15.567ZM9.20799 8.27701C8.23199 8.46201 7.32799 8.82301 6.54599 9.14701C6.47699 9.16701 6.36699 9.28101 6.39599 9.42201C6.70399 10.956 8.20799 15.28 13.959 15.617C14.092 15.623 14.225 15.599 14.121 15.537C13.345 14.957 10.587 14.36 9.45999 8.49501C9.44799 8.43501 9.44999 8.20701 9.20799 8.27701ZM6.44799 11.877C6.10599 12.078 5.22199 12.642 4.90499 12.933C4.84299 12.99 4.85499 13.031 4.88199 13.129C5.13799 14.037 6.64799 15.629 10.398 15.505C10.575 15.499 10.576 15.446 10.483 15.38C10.423 15.336 9.23799 14.966 8.15399 13.996C7.61199 13.51 7.06099 12.773 6.69099 12.072C6.59899 11.88 6.55199 11.816 6.44799 11.877Z" fill="white"/>
</mask>
<g mask="url(#mask1_1_206)">
</g>
</g>
<defs>
<clipPath id="clip0_1_206">
<rect width="21" height="21" fill="white"/>
</clipPath>
</defs>
</svg>
