<svg width="134" height="21" viewBox="0 0 134 21" fill="none" xmlns="http://www.w3.org/2000/svg">
<path d="M8.48953 5.98213L9.95428 6.9077L9.39436 12.2L17.2762 7.39359C17.0983 5.97454 16.5581 4.62518 15.7076 3.4754C14.8571 2.32562 13.7249 1.41415 12.4201 0.828709C11.1152 0.243271 9.68166 0.00358862 8.25735 0.132734C6.83304 0.261879 5.46595 0.755503 4.28769 1.56609C2.87039 2.5413 1.78978 3.93139 1.19427 5.54543C0.598755 7.15947 0.517553 8.91829 0.961815 10.5803L8.48953 5.98213Z" fill="#230B59"/>
<path d="M8.73023 14.8706L7.26548 13.9448L7.8254 8.65491L1.66058 12.4176C2.48416 13.9803 3.78313 15.2408 5.36989 16.017C6.95666 16.7932 8.74907 17.0449 10.4883 16.7359C12.2275 16.4268 13.8234 15.5729 15.0456 14.2976C16.2678 13.0222 17.053 11.3914 17.2877 9.64059L8.73023 14.8706Z" fill="#230B59"/>
<path d="M9.46367 5.2206C9.77605 5.2206 10.0756 5.09651 10.2965 4.87562C10.5174 4.65474 10.6415 4.35515 10.6415 4.04277C10.6415 3.73038 10.5174 3.4308 10.2965 3.20991C10.0756 2.98902 9.77605 2.86493 9.46367 2.86493C9.15128 2.86493 8.8517 2.98902 8.63081 3.20991C8.40992 3.4308 8.28583 3.73038 8.28583 4.04277C8.28583 4.35515 8.40992 4.65474 8.63081 4.87562C8.8517 5.09651 9.15128 5.2206 9.46367 5.2206Z" fill="white"/>
<path d="M21.5179 16.2104L23.5864 16.1803V1.5598L21.5179 1.58999V16.2104ZM31.4129 6.0517C30.4873 6.0517 28.9115 6.4633 28.2125 7.58102V6.2596H26.2594V16.2104H28.2125V10.8255C28.2125 8.86307 29.6935 7.9837 31.1609 7.9837C32.5492 7.9837 33.4748 9.02503 33.4748 10.5733V16.2104H35.4257V10.469C35.4257 9.05522 35.0369 7.89812 34.2686 7.12532C33.5743 6.42182 32.5862 6.0517 31.4129 6.0517ZM41.2989 13.6511L38.3114 6.26196H36.2216L40.3547 16.2104H42.2244L46.3782 6.26196H44.2677L41.2989 13.6511ZM77.7483 6.0517C74.7401 6.0517 72.5532 8.21732 72.5532 11.2051C72.5532 14.1923 74.7886 16.421 77.7483 16.421C78.7876 16.4474 79.81 16.155 80.6782 15.5831C81.5463 15.0111 82.2185 14.187 82.6043 13.2216C82.8605 12.581 82.9838 11.8949 82.9665 11.2051C82.9665 8.21759 80.782 6.05143 77.7483 6.05143V6.0517ZM77.7483 14.5743C75.9226 14.5743 74.534 13.1258 74.534 11.2051C74.534 9.31904 75.9226 7.89812 77.7551 7.89812C78.1888 7.89199 78.6193 7.9737 79.0206 8.13835C79.4219 8.30299 79.7857 8.54715 80.0902 8.85612C80.3946 9.1651 80.6334 9.5325 80.7921 9.93619C80.9507 10.3399 81.0261 10.7715 81.0135 11.2051C81.0135 13.1258 79.6089 14.5743 77.7483 14.5743ZM89.7099 6.05143C88.2682 6.05143 86.9492 6.67881 86.2782 7.67132V6.2596H84.325V20.9869H86.2782V14.8218C86.9445 15.824 88.215 16.4141 89.7306 16.4141C92.6071 16.4141 94.6945 14.2388 94.6945 11.2397C94.6945 8.24068 92.5979 6.05143 89.7099 6.05143ZM89.5411 14.5743C89.1086 14.5756 88.6801 14.4906 88.2808 14.3243C87.8815 14.158 87.5193 13.9138 87.2155 13.6059C86.9117 13.298 86.6723 12.9326 86.5114 12.5311C86.3504 12.1296 86.2712 11.7001 86.2782 11.2676C86.2782 9.34686 87.6805 7.89812 89.5411 7.89812C91.3251 7.89812 92.7205 9.37915 92.7205 11.2676C92.7205 13.1557 91.3529 14.5743 89.5411 14.5743ZM115.066 7.64822C114.399 6.64626 113.129 6.05616 111.613 6.05616C108.736 6.05616 106.649 8.2315 106.649 11.2303C106.649 14.2296 108.746 16.4257 111.634 16.4257C113.076 16.4257 114.395 15.7983 115.066 14.8058V16.2102H117.019V0.895935H115.066V7.64848V7.64822ZM111.791 14.574C110.018 14.574 108.632 13.093 108.632 11.2048C108.632 9.31641 109.981 7.89786 111.791 7.89786C112.225 7.89503 112.655 7.9788 113.056 8.14428C113.458 8.30976 113.822 8.55362 114.128 8.86158C114.433 9.16954 114.675 9.53541 114.837 9.93777C115 10.3401 115.081 10.7709 115.075 11.2048C115.066 12.8384 113.916 14.574 111.791 14.574ZM119.49 6.2617H121.443V16.2102H119.49V6.26196V6.2617ZM133.389 6.25933H131.436V7.41643C130.741 6.55097 129.545 6.04645 128.147 6.04645H127.99C125.114 6.04645 123.026 8.22178 123.026 11.2208C123.026 14.2199 125.123 16.416 128.011 16.416H128.175C129.506 16.416 130.734 15.8792 131.442 15.0276V16.2102H133.544V6.25986H133.389V6.25933ZM128.235 14.5672C126.502 14.5207 125.157 13.0631 125.157 11.2025C125.157 9.34187 126.476 7.94196 128.235 7.90022C130.029 7.93172 131.46 9.40802 131.436 11.2025C131.436 12.8153 130.304 14.5231 128.235 14.5696V14.5669V14.5672ZM61.4176 10.1288C60.397 9.8674 59.6752 9.63377 59.6752 8.99747C59.6752 8.28216 60.397 7.78236 61.4339 7.78236C62.1858 7.79749 62.9119 8.05934 63.5003 8.5276L63.5489 8.56435L64.5973 7.11141L64.5508 7.0744C63.6269 6.35483 62.4821 5.97782 61.3113 6.0076C59.5502 6.0076 57.655 6.97701 57.655 9.10142C57.655 10.5824 58.8906 11.3046 59.9251 11.6469C60.2721 11.7626 60.6194 11.8529 60.9711 11.9409C62.0518 12.2186 62.9866 12.4593 62.9866 13.3017C62.9866 13.8915 62.3918 14.5165 61.2903 14.5165C60.2467 14.4876 59.2416 14.1159 58.4301 13.4589L58.3792 13.4219L57.3331 14.9168L57.3772 14.9515C58.5011 15.8433 59.8999 16.317 61.3344 16.2913C63.1163 16.2913 65.0115 15.2292 65.0115 13.2599C65.0115 11.2907 63.1948 10.5848 61.4176 10.1288ZM105.379 11.066C105.379 8.0971 103.46 6.02833 100.683 6.02833C97.8765 6.02833 95.8401 8.15038 95.8401 11.071C95.8211 11.7706 95.9425 12.4669 96.1973 13.1187C96.4521 13.7705 96.835 14.3647 97.3235 14.8659C98.1977 15.7173 99.3729 16.1888 100.593 16.1779H100.686C102.405 16.148 103.527 15.8632 104.891 14.3916L104.932 14.3475L103.578 13.0586L103.537 13.1048C103.194 13.5067 102.767 13.8277 102.286 14.0446C101.804 14.2614 101.281 14.3688 100.753 14.359C99.2442 14.359 98.0545 13.2529 97.7747 11.5983L105.312 11.5823H105.367V11.5267C105.375 11.4365 105.375 11.3459 105.367 11.2558C105.381 11.219 105.379 11.1681 105.379 11.0662V11.066ZM98.0731 10.0619C98.3299 8.62472 99.2717 7.83328 100.732 7.83328C102.146 7.83328 103.109 8.6641 103.322 10.0619H98.0731ZM56.2527 11.0662C56.2527 8.09736 54.3202 6.02833 51.5618 6.02833C48.7549 6.02833 46.7184 8.15038 46.7184 11.071C46.6997 11.7706 46.8214 12.4668 47.0762 13.1187C47.3309 13.7705 47.7137 14.3647 48.2018 14.8662C49.0762 15.7173 50.2513 16.1888 51.4715 16.1779H51.5618C53.2836 16.148 54.406 15.8632 55.7689 14.3916L55.8106 14.3475L54.4569 13.0586L54.4152 13.1048C54.0721 13.5078 53.6437 13.8293 53.161 14.0463C52.6783 14.2632 52.1534 14.37 51.6243 14.359C50.1133 14.359 48.9261 13.2529 48.6462 11.5983L56.1808 11.5823H56.2388V11.5267C56.2448 11.4365 56.2448 11.346 56.2388 11.2558C56.2527 11.219 56.2527 11.1681 56.2527 11.0662ZM48.94 10.0616C49.1991 8.62446 50.1409 7.83302 51.6012 7.83302C53.015 7.83302 53.9779 8.66383 54.1908 10.0616H48.94ZM71.41 14.1435C71.1415 14.2154 70.8641 14.249 70.5862 14.2433C70.3635 14.2535 70.141 14.2177 69.9328 14.138C69.7245 14.0583 69.5349 13.9365 69.3759 13.7802C69.163 13.5303 69.1191 13.1463 69.1191 12.6488V7.9606H71.8959V6.2596H69.1191V3.03872H67.1635V6.2596H66.0899V7.9606H67.1635V12.5473C67.1635 13.6511 67.409 14.4632 67.9135 15.0279C68.2426 15.3914 68.6477 15.6781 69.1 15.8676C69.5522 16.0572 70.0406 16.145 70.5306 16.1249C71.0213 16.1295 71.5101 16.0625 71.9814 15.9259L72.0394 15.9073L71.4677 14.1275L71.41 14.1438V14.1435ZM120.467 1.49496C120.301 1.49465 120.136 1.52746 119.983 1.59146C119.83 1.65546 119.691 1.74936 119.575 1.86768C119.459 1.98599 119.367 2.12634 119.306 2.2805C119.244 2.43465 119.214 2.59953 119.217 2.76546C119.215 2.93022 119.245 3.09379 119.307 3.2465C119.369 3.3992 119.461 3.53795 119.577 3.65455C119.694 3.77106 119.833 3.863 119.986 3.92491C120.138 3.98682 120.302 4.01744 120.467 4.01496C120.633 4.01856 120.798 3.9889 120.953 3.92773C121.108 3.86656 121.249 3.77511 121.367 3.65875C121.486 3.54236 121.581 3.40336 121.645 3.24994C121.709 3.09653 121.742 2.9318 121.742 2.76546C121.742 2.59803 121.71 2.43213 121.646 2.27736C121.582 2.12259 121.488 1.98204 121.37 1.86386C121.251 1.74568 121.11 1.65222 120.955 1.58889C120.8 1.52557 120.634 1.49364 120.467 1.49496Z" fill="#230B59"/>
</svg>
